<?xml version="1.0" encoding="UTF-8"?><svg id="Livello_2" xmlns="http://www.w3.org/2000/svg" viewBox="0 0 593.94 236.6"><defs><style>.cls-1{fill:#a37640;}.cls-1,.cls-2{stroke-width:0px;}.cls-2{fill:#fff;}</style></defs><g id="Livello_1-2"><path class="cls-2" d="m270.5,111.7c0-2.64-.5-5.15-1.49-7.52-.99-2.37-2.37-4.43-4.13-6.19-1.76-1.76-3.8-3.17-6.11-4.21-2.31-1.05-4.85-1.57-7.6-1.57s-5.12.49-7.44,1.49c-2.31.99-4.32,2.37-6.03,4.13-1.71,1.76-3.08,3.83-4.13,6.2-1.05,2.37-1.57,4.87-1.57,7.52s.5,5.12,1.49,7.44c.99,2.31,2.37,4.32,4.13,6.03,1.76,1.71,3.83,3.08,6.19,4.13,2.37,1.05,4.88,1.57,7.52,1.57s5.12-.5,7.44-1.49,4.32-2.37,6.03-4.13c1.71-1.76,3.08-3.8,4.13-6.11,1.05-2.31,1.57-4.73,1.57-7.27m-37.67-95.01v60.8c7.05-7.38,15.86-11.07,26.44-11.07,6.28,0,12.03,1.18,17.27,3.55,5.23,2.37,9.69,5.56,13.38,9.58,3.69,4.02,6.58,8.76,8.67,14.21,2.09,5.45,3.14,11.26,3.14,17.43s-1.07,12.17-3.22,17.68c-2.15,5.51-5.15,10.3-9.01,14.38-3.86,4.08-8.4,7.3-13.63,9.67-5.23,2.37-10.88,3.55-16.94,3.55-11.02,0-19.72-4.02-26.11-12.06v9.42h-29.91V16.7h29.91Z"/><path class="cls-2" d="m340.39,153.84h-29.9v-84.76h29.9v84.76Zm-31.89-117.31c0-2.31.44-4.49,1.32-6.53.88-2.04,2.09-3.83,3.63-5.37,1.54-1.54,3.33-2.75,5.37-3.63,2.04-.88,4.21-1.32,6.53-1.32s4.49.44,6.53,1.32c2.04.88,3.83,2.09,5.37,3.63,1.54,1.54,2.75,3.33,3.64,5.37.88,2.04,1.32,4.21,1.32,6.53s-.44,4.49-1.32,6.53c-.88,2.04-2.09,3.83-3.64,5.37-1.54,1.54-3.33,2.75-5.37,3.63-2.04.88-4.21,1.32-6.53,1.32s-4.49-.44-6.53-1.32c-2.04-.88-3.82-2.09-5.37-3.63-1.54-1.54-2.75-3.33-3.63-5.37-.88-2.04-1.32-4.21-1.32-6.53"/><path class="cls-2" d="m414.58,99.15c-.99-4.18-3.03-7.54-6.11-10.08-3.08-2.53-6.83-3.8-11.24-3.8-4.63,0-8.4,1.21-11.32,3.64-2.92,2.42-4.77,5.84-5.54,10.24h34.2Zm-35.03,17.35c0,12.89,6.06,19.33,18.17,19.33,6.5,0,11.4-2.64,14.71-7.93h28.91c-5.84,19.39-20.43,29.08-43.79,29.08-7.16,0-13.71-1.07-19.66-3.22-5.95-2.15-11.05-5.2-15.28-9.17-4.24-3.96-7.52-8.7-9.83-14.21-2.31-5.51-3.47-11.67-3.47-18.51s1.1-13.41,3.3-19.08c2.2-5.67,5.34-10.49,9.42-14.46,4.07-3.96,9.01-7.02,14.79-9.17,5.78-2.15,12.31-3.22,19.58-3.22s13.6,1.07,19.33,3.22c5.73,2.15,10.57,5.26,14.54,9.34,3.97,4.08,6.99,9.06,9.09,14.95,2.09,5.89,3.14,12.53,3.14,19.91v3.14h-62.95Z"/><path class="cls-2" d="m518.83,111.71c0-2.64-.47-5.15-1.4-7.52-.94-2.37-2.29-4.43-4.05-6.2-1.76-1.76-3.83-3.17-6.2-4.21-2.37-1.05-4.93-1.57-7.68-1.57s-5.12.49-7.43,1.49c-2.31.99-4.32,2.37-6.03,4.13-1.71,1.76-3.08,3.83-4.13,6.2-1.05,2.37-1.57,4.87-1.57,7.52s.5,5.12,1.49,7.43c.99,2.31,2.37,4.33,4.13,6.03,1.76,1.71,3.82,3.08,6.19,4.13,2.37,1.05,4.87,1.57,7.52,1.57s5.12-.5,7.43-1.49c2.31-.99,4.32-2.37,6.03-4.13,1.7-1.76,3.08-3.8,4.13-6.11,1.05-2.31,1.57-4.73,1.57-7.27m-37.67,84.43h-29.91v-127.06h29.91v9.42c6.39-8.04,15.09-12.06,26.11-12.06,6.06,0,11.7,1.19,16.93,3.55,5.23,2.37,9.78,5.59,13.63,9.66,3.85,4.08,6.86,8.87,9.01,14.38,2.15,5.51,3.22,11.4,3.22,17.68s-1.07,12.12-3.22,17.51c-2.15,5.4-5.12,10.14-8.92,14.21-3.8,4.08-8.29,7.27-13.47,9.58-5.18,2.31-10.8,3.47-16.85,3.47-10.57,0-19.39-3.63-26.44-10.9v50.56Z"/><path class="cls-2" d="m588.72,153.84h-29.91v-84.76h29.91v84.76Zm-31.89-117.31c0-2.31.44-4.49,1.32-6.53.88-2.04,2.09-3.83,3.64-5.37,1.54-1.54,3.33-2.75,5.37-3.63,2.04-.88,4.21-1.32,6.53-1.32s4.49.44,6.53,1.32c2.04.88,3.83,2.09,5.37,3.63,1.54,1.54,2.75,3.33,3.63,5.37.88,2.04,1.32,4.21,1.32,6.53s-.44,4.49-1.32,6.53c-.88,2.04-2.09,3.83-3.63,5.37-1.54,1.54-3.33,2.75-5.37,3.63-2.04.88-4.21,1.32-6.53,1.32s-4.49-.44-6.53-1.32c-2.04-.88-3.83-2.09-5.37-3.63-1.54-1.54-2.75-3.33-3.64-5.37-.88-2.04-1.32-4.21-1.32-6.53"/><path class="cls-2" d="m165.32,72.12c-.44-3.51-1.1-6.95-1.97-10.3-.92-3.53-2.06-6.97-3.42-10.3-1.27-3.11-2.71-6.12-4.34-9.02-.24-.43-.48-.86-.73-1.28-2.11-3.62-4.48-7.06-7.1-10.3-.82-1.02-1.67-2.02-2.54-2.99-2.29-2.59-4.75-5.03-7.36-7.31-.98-.86-1.99-1.71-3.01-2.52-3.26-2.6-6.73-4.96-10.37-7.05-.43-.25-.86-.49-1.29-.73-2.92-1.61-5.95-3.05-9.08-4.31-3.35-1.35-6.82-2.48-10.37-3.39-3.38-.86-6.84-1.52-10.37-1.96-3.4-.42-6.86-.64-10.37-.64s-6.97.22-10.37.64c-3.53.43-7,1.09-10.37,1.96-3.55.91-7.02,2.04-10.37,3.39-3.13,1.26-6.16,2.7-9.08,4.31-.43.24-.86.48-1.29.73-3.64,2.09-7.11,4.45-10.37,7.05-1.02.82-2.03,1.66-3.01,2.52-2.61,2.28-5.07,4.72-7.36,7.31-.87.97-1.72,1.97-2.54,2.99-2.62,3.24-4.99,6.68-7.1,10.3-.25.42-.49.85-.73,1.28-1.62,2.9-3.07,5.91-4.34,9.02-1.36,3.33-2.5,6.77-3.42,10.3-.87,3.35-1.53,6.79-1.97,10.3-.43,3.38-.65,6.81-.65,10.3s.22,6.93.65,10.3c.44,3.51,1.1,6.95,1.97,10.3.92,3.53,2.06,6.97,3.42,10.3,1.27,3.11,2.71,6.12,4.34,9.02.24.43.48.86.73,1.28,2.11,3.62,4.48,7.06,7.1,10.3.82,1.02,1.67,2.02,2.54,2.99,2.29,2.59,4.75,5.03,7.36,7.31.98.86,1.99,1.71,3.01,2.52,3.26,2.6,6.73,4.96,10.37,7.05.43.25.86.49,1.29.73,2.92,1.61,5.95,3.05,9.08,4.31v-11.25c-2.16-1.02-4.26-2.15-6.3-3.36-1.39-.83-2.74-1.71-4.07-2.62-3.32-2.3-6.44-4.87-9.32-7.68-.35-.34-.7-.69-1.05-1.04-2.83-2.86-5.42-5.96-7.73-9.26-.92-1.32-1.8-2.66-2.64-4.04-1.23-2.03-2.36-4.12-3.39-6.26-1.58-3.3-2.92-6.75-3.98-10.3-1-3.34-1.76-6.78-2.27-10.3-.48-3.36-.74-6.8-.74-10.3s.25-6.94.74-10.3c.51-3.53,1.27-6.97,2.27-10.3,1.07-3.55,2.4-7,3.98-10.3,1.03-2.15,2.16-4.24,3.39-6.26.84-1.38,1.72-2.73,2.64-4.04,2.32-3.3,4.9-6.4,7.73-9.26.35-.35.7-.7,1.05-1.04,2.88-2.81,6-5.38,9.32-7.68,1.33-.92,2.68-1.79,4.07-2.62,2.04-1.22,4.14-2.35,6.3-3.37,3.33-1.57,6.79-2.9,10.37-3.95,3.36-.99,6.82-1.75,10.37-2.25,3.39-.48,6.85-.73,10.37-.73s6.99.25,10.37.73c3.55.5,7.01,1.26,10.37,2.25,3.58,1.06,7.05,2.39,10.37,3.95,2.16,1.02,4.27,2.15,6.3,3.37,1.39.83,2.74,1.71,4.07,2.62,3.33,2.3,6.44,4.87,9.32,7.68.35.34.7.69,1.05,1.04,2.83,2.86,5.42,5.96,7.73,9.26.92,1.32,1.8,2.66,2.64,4.04,1.23,2.03,2.36,4.11,3.39,6.26,1.58,3.3,2.92,6.75,3.98,10.3,1,3.34,1.76,6.78,2.27,10.3.48,3.37.74,6.81.74,10.3s-.25,6.94-.74,10.3c-.51,3.53-1.27,6.97-2.27,10.3-1.07,3.55-2.4,7-3.98,10.3-1.03,2.15-2.16,4.24-3.39,6.26-.84,1.38-1.72,2.72-2.64,4.04-2.32,3.3-4.9,6.4-7.73,9.26-.34.35-.7.7-1.05,1.04-2.88,2.81-6,5.38-9.32,7.68-1.33.92-2.68,1.79-4.07,2.62-2.04,1.22-4.14,2.35-6.3,3.36-3.33,1.57-6.79,2.9-10.37,3.96-3.36.99-6.82,1.74-10.37,2.25-3.39.48-6.85.73-10.37.73v36.28h.02c.12,2.73,2.39,4.91,5.16,4.91s5.04-2.18,5.17-4.91h.02v-26.62c3.53-.43,7-1.09,10.37-1.96,3.56-.91,7.02-2.04,10.37-3.39,3.13-1.26,6.16-2.7,9.08-4.31.43-.24.86-.48,1.29-.73,3.64-2.1,7.11-4.45,10.37-7.05,1.03-.82,2.04-1.66,3.01-2.52,2.61-2.28,5.07-4.72,7.36-7.31.87-.97,1.72-1.97,2.54-2.99,2.62-3.24,4.99-6.68,7.1-10.3.25-.42.49-.85.73-1.28,1.63-2.9,3.07-5.91,4.34-9.02,1.36-3.33,2.5-6.77,3.42-10.3.87-3.35,1.53-6.79,1.97-10.3.43-3.38.65-6.81.65-10.3s-.22-6.93-.65-10.3"/><path class="cls-1" d="m41.49,113.34h0s0,0,0,0c-2.4-3.17-4.44-6.62-6.05-10.3-1.44-3.27-2.55-6.72-3.28-10.3-.68-3.33-1.04-6.77-1.04-10.3v-34.18c-.72,1.06-1.4,2.16-2.05,3.27-1.9,3.26-3.5,6.7-4.78,10.3-1.18,3.31-2.09,6.76-2.68,10.3-.57,3.35-.86,6.79-.86,10.3s.29,6.95.86,10.3c.59,3.54,1.5,6.99,2.68,10.3,1.28,3.6,2.89,7.05,4.78,10.3.65,1.11,1.33,2.2,2.05,3.27,1.65,2.48,3.49,4.83,5.48,7.03,1.54,1.71,3.17,3.34,4.9,4.86,2.22,1.98,4.59,3.79,7.08,5.44,1.07.71,2.17,1.39,3.29,2.03v-12.33h0c-3.92-2.93-7.42-6.4-10.37-10.3"/><path class="cls-1" d="m72.61,122.33c3.31.85,6.79,1.3,10.37,1.3s7.06-.45,10.37-1.3c3.68-.94,7.16-2.37,10.37-4.21,2.39-1.37,4.63-2.98,6.69-4.79,1.3-1.14,2.53-2.36,3.68-3.66,1.82-2.04,3.44-4.27,4.82-6.65,1.86-3.19,3.3-6.64,4.24-10.3.85-3.29,1.31-6.74,1.31-10.3s-.45-7.01-1.31-10.3c-.94-3.66-2.39-7.11-4.24-10.3-1.38-2.38-3-4.6-4.82-6.64-1.15-1.29-2.38-2.52-3.68-3.66-2.06-1.81-4.3-3.42-6.69-4.79-3.21-1.84-6.69-3.27-10.37-4.21-3.31-.85-6.79-1.3-10.37-1.3v10.3c3.64,0,7.13.62,10.37,1.76,3.87,1.35,7.38,3.45,10.37,6.11.86.76,1.68,1.57,2.44,2.43,2.69,2.97,4.8,6.46,6.16,10.3,1.15,3.22,1.77,6.69,1.77,10.3s-.62,7.08-1.77,10.3c-1.36,3.84-3.47,7.33-6.16,10.3-.77.85-1.58,1.67-2.44,2.43-2.99,2.67-6.51,4.76-10.37,6.11-3.24,1.14-6.74,1.76-10.37,1.76s-7.13-.62-10.37-1.76c-3.87-1.35-7.38-3.45-10.37-6.11-.86-.76-1.68-1.57-2.44-2.43-2.69-2.97-4.79-6.46-6.15-10.3-1.15-3.22-1.78-6.69-1.78-10.3V28.88c-1.12.64-2.22,1.32-3.29,2.03-2.49,1.64-4.86,3.46-7.08,5.44v46.08c0,3.56.46,7.01,1.31,10.3.95,3.66,2.39,7.11,4.24,10.3,1.38,2.38,3,4.6,4.82,6.65,1.15,1.29,2.38,2.52,3.68,3.66,2.06,1.81,4.3,3.42,6.69,4.79,3.21,1.84,6.69,3.27,10.37,4.21"/><path class="cls-1" d="m62.24,24.13v58.3c0,3.76,1.01,7.27,2.78,10.3,1.82,3.12,4.45,5.74,7.6,7.54,3.05,1.76,6.59,2.76,10.37,2.76s7.32-1,10.37-2.76c3.15-1.81,5.77-4.42,7.6-7.54,1.77-3.03,2.78-6.55,2.78-10.3s-1.01-7.27-2.78-10.3c-1.82-3.12-4.45-5.73-7.6-7.54-3.05-1.76-6.59-2.76-10.37-2.76v10.3c5.73,0,10.37,4.61,10.37,10.3s-4.64,10.3-10.37,10.3-10.37-4.61-10.37-10.3V21.46c-3.57.59-7.04,1.49-10.37,2.66"/><path class="cls-1" d="m72.61,143.38c3.37.57,6.84.86,10.37.86s7-.29,10.37-.86c3.57-.59,7.04-1.49,10.37-2.66,3.62-1.27,7.09-2.87,10.37-4.75,1.12-.64,2.22-1.32,3.29-2.03,2.49-1.64,4.86-3.46,7.08-5.44,1.72-1.53,3.36-3.15,4.9-4.86,1.99-2.21,3.82-4.56,5.47-7.03.72-1.07,1.4-2.16,2.05-3.27,1.9-3.26,3.5-6.7,4.78-10.3,1.18-3.31,2.09-6.76,2.68-10.3.57-3.35.86-6.79.86-10.3s-.29-6.95-.86-10.3c-.59-3.54-1.5-6.99-2.68-10.3-1.28-3.6-2.89-7.05-4.78-10.3-.65-1.11-1.33-2.2-2.05-3.27-1.65-2.48-3.49-4.82-5.47-7.03-1.54-1.71-3.18-3.34-4.9-4.87-2.22-1.97-4.59-3.79-7.08-5.44-1.07-.72-2.17-1.39-3.29-2.03-3.28-1.88-6.75-3.48-10.37-4.75-3.34-1.17-6.81-2.07-10.37-2.66-3.37-.57-6.84-.86-10.37-.86v10.3c3.56,0,7.02.35,10.37,1.03,3.61.73,7.08,1.83,10.37,3.26,3.71,1.6,7.18,3.63,10.37,6.01h0s0,0,0,0c3.92,2.93,7.42,6.4,10.37,10.3h0s0,0,0,0c2.4,3.17,4.44,6.62,6.05,10.3,1.44,3.27,2.55,6.72,3.28,10.3.68,3.32,1.04,6.77,1.04,10.3s-.36,6.98-1.04,10.3c-.73,3.58-1.84,7.04-3.28,10.3-1.61,3.68-3.65,7.13-6.05,10.3h0c-2.95,3.9-6.44,7.37-10.37,10.3h0c-3.19,2.39-6.67,4.41-10.37,6.02-3.29,1.43-6.77,2.53-10.37,3.26-3.35.68-6.82,1.03-10.37,1.03s-7.03-.35-10.37-1.03c-3.61-.73-7.08-1.83-10.37-3.26v60.4c-.02.18-.03.36-.03.54,0,2.86,2.33,5.17,5.21,5.17s5.07-2.19,5.19-4.94h0v-.05c0-.06,0-.12,0-.18s0-.12,0-.18v-47.02Z"/><path class="cls-2" d="m592.4,233.13c-.85,0-1.54.72-1.54,1.54s.69,1.54,1.54,1.54,1.54-.69,1.54-1.54-.69-1.54-1.54-1.54m-25.36,2.65h2.49v-14.89l15,15.71v-20.8h-2.49v14.76l-15-15.71v20.94Zm-12.54-10.07v2.28h5.17c-.11,3.26-3.44,5.94-6.55,5.94-4.32,0-7.76-3.98-7.76-8.16,0-4.48,3.5-8.11,7.98-8.11,2.44,0,4.85,1.3,6.28,3.26l1.75-1.67c-1.96-2.46-5.04-3.87-8.14-3.87-5.75,0-10.36,4.72-10.36,10.47s4.51,10.36,10.1,10.36,9.46-4.21,9.46-9.7v-.79h-7.92Zm-16.4-9.91h-2.49v19.98h2.49v-19.98Zm-8.16,2.6c-1.09-1.93-2.91-3.02-5.14-3.02-3.02,0-5.88,1.93-5.88,5.17,0,2.78,2.07,4.08,4.35,5.06l1.38.58c1.72.71,3.44,1.64,3.44,3.79s-1.54,3.9-3.68,3.9-3.9-1.59-3.87-3.79l-2.52.53c.42,3.21,2.94,5.59,6.17,5.59,3.58,0,6.39-2.6,6.39-6.23,0-3.34-2.12-4.9-4.96-6.01l-1.43-.56c-1.24-.48-2.78-1.3-2.78-2.86,0-1.75,1.75-2.84,3.34-2.84s2.46.64,3.21,1.88l1.99-1.19Zm-27.06,17.39h10.73v-2.28h-8.24v-7.55h8v-2.28h-8v-5.59h8.24v-2.28h-10.73v19.98Zm-17.73-17.7h.87c5.09,0,9.49,1.88,9.49,7.71s-4.4,7.71-9.49,7.71h-.87v-15.42Zm-2.49,17.7h4.06c6.31,0,11.29-3.29,11.29-10.1s-5.09-9.89-11.21-9.89h-4.14v19.98Zm-17.94-2.65c-.85,0-1.54.72-1.54,1.54s.69,1.54,1.54,1.54,1.54-.69,1.54-1.54-.69-1.54-1.54-1.54"/><path class="cls-1" d="m447.53,233.87c-4.32,0-7.98-3.52-7.98-8.08s3.29-8.08,7.98-8.08,7.98,3.68,7.98,8.08-3.66,8.08-7.98,8.08m0-18.5c-5.72,0-10.47,4.69-10.47,10.42s4.69,10.41,10.47,10.41,10.47-4.48,10.47-10.41-4.74-10.42-10.47-10.42m-18.15,2.7h4.74v-2.28h-11.98v2.28h4.74v17.7h2.49v-17.7Zm-11.13.32c-1.09-1.93-2.92-3.02-5.14-3.02-3.02,0-5.88,1.93-5.88,5.17,0,2.78,2.07,4.08,4.35,5.06l1.38.58c1.72.72,3.45,1.64,3.45,3.79s-1.54,3.89-3.68,3.89-3.9-1.59-3.87-3.79l-2.52.53c.42,3.21,2.94,5.59,6.17,5.59,3.58,0,6.39-2.6,6.39-6.23,0-3.34-2.12-4.9-4.96-6.02l-1.43-.56c-1.24-.48-2.78-1.3-2.78-2.86,0-1.75,1.75-2.83,3.34-2.83s2.46.64,3.21,1.88l1.99-1.19Zm-31.32-2.6v12.64c0,4.4,2.73,7.76,7.31,7.76s7.32-3.36,7.32-7.76v-12.64h-2.49v11.79c0,3.26-.98,6.28-4.82,6.28s-4.82-3.02-4.82-6.28v-11.79h-2.49Zm-12.43,9.91v2.28h5.17c-.11,3.26-3.45,5.94-6.55,5.94-4.32,0-7.77-3.98-7.77-8.16,0-4.48,3.5-8.11,7.98-8.11,2.44,0,4.85,1.3,6.28,3.26l1.75-1.67c-1.96-2.47-5.04-3.87-8.14-3.87-5.75,0-10.36,4.72-10.36,10.47s4.51,10.36,10.1,10.36,9.46-4.21,9.46-9.7v-.8h-7.92Z"/><path class="cls-2" d="m346.05,233.13c-.85,0-1.54.72-1.54,1.54s.69,1.54,1.54,1.54,1.54-.69,1.54-1.54-.69-1.54-1.54-1.54m-18.13,2.65h10.73v-2.28h-8.24v-7.55h8v-2.28h-8v-5.59h8.24v-2.28h-10.73v19.98Zm-23.43,0h2.49v-14.89l15,15.71v-20.8h-2.49v14.76l-15-15.72v20.94Zm-15.03-1.91c-4.32,0-7.98-3.52-7.98-8.08s3.29-8.08,7.98-8.08,7.98,3.68,7.98,8.08-3.66,8.08-7.98,8.08m0-18.5c-5.72,0-10.47,4.69-10.47,10.41s4.69,10.41,10.47,10.41,10.47-4.48,10.47-10.41-4.74-10.41-10.47-10.41m-15.19.42h-2.49v19.98h2.49v-19.98Zm-8.16,2.6c-1.09-1.93-2.91-3.02-5.14-3.02-3.02,0-5.88,1.93-5.88,5.17,0,2.78,2.07,4.08,4.35,5.06l1.38.58c1.72.71,3.45,1.64,3.45,3.79s-1.54,3.89-3.68,3.89-3.9-1.59-3.87-3.79l-2.52.53c.42,3.21,2.94,5.59,6.18,5.59,3.58,0,6.39-2.6,6.39-6.23,0-3.34-2.12-4.9-4.96-6.02l-1.43-.56c-1.25-.48-2.78-1.3-2.78-2.86,0-1.75,1.75-2.83,3.34-2.83s2.46.64,3.21,1.88l1.99-1.19Zm-16.62,0c-1.09-1.93-2.92-3.02-5.14-3.02-3.02,0-5.88,1.93-5.88,5.17,0,2.78,2.07,4.08,4.35,5.06l1.38.58c1.72.71,3.45,1.64,3.45,3.79s-1.54,3.89-3.68,3.89-3.9-1.59-3.87-3.79l-2.52.53c.42,3.21,2.94,5.59,6.18,5.59,3.58,0,6.39-2.6,6.39-6.23,0-3.34-2.12-4.9-4.96-6.02l-1.43-.56c-1.25-.48-2.78-1.3-2.78-2.86,0-1.75,1.75-2.83,3.34-2.83s2.47.64,3.21,1.88l1.99-1.19Zm-20.91,10.1h-7.1l3.55-8.08,3.55,8.08Zm1.03,2.28l2.28,5.01h2.68l-9.54-20.83-9.54,20.83h2.68l2.28-5.01h9.17Zm-22.9-12.75h.66c2.46,0,5.43.37,5.43,3.5s-2.76,3.66-5.3,3.66h-.79v-7.15Zm0,9.38h1.43c3.79,0,7-1.62,7-5.83,0-3.66-1.91-5.78-8.06-5.78h-2.86v19.98h2.49v-8.37Z"/></g></svg>