<svg width="116" height="116" viewBox="0 0 116 116" fill="none" xmlns="http://www.w3.org/2000/svg">
<path d="M58.0604 0C90.1115 0 116 25.9792 116 58C116 90.0208 90.0208 116 58 116C25.9792 116 0 90.0208 0 58C0 25.9792 25.8885 0 57.9094 0H58.0604ZM58 3.625C27.9729 3.625 3.625 27.9729 3.625 58C3.625 88.0271 27.9729 112.375 58 112.375C88.0271 112.375 112.375 88.0271 112.375 58C112.375 27.9729 88.0271 3.625 58 3.625ZM40.449 30.3896C40.8417 30.3896 40.9927 30.45 41.3854 30.601L87.4531 56.399C88.6917 57.0938 88.6917 58.876 87.4531 59.5708L41.3854 85.3688C40.1771 86.0333 38.6969 85.1573 38.6969 83.7979V32.2021C38.7271 31.326 39.3312 30.5406 40.2375 30.4198L40.449 30.3896ZM42.3219 35.3135V80.7167L82.8313 58L42.3219 35.3135Z" fill="white"/>
</svg>